<svg xmlns="http://www.w3.org/2000/svg">
  <symbol id="android-logo" viewBox="0 0 43 47">
    <path
      d="M34.89 14.06H8.1V33.2c0 .92.34 1.8.96 2.47a3.7 3.7 0 002.43 1.16v7.46c.04.73.37 1.42.92 1.93a2.99 2.99 0 004.05 0c.55-.5.88-1.2.92-1.93v-7.44h8.24v7.44c.04.73.37 1.42.92 1.93a2.99 2.99 0 004.05 0c.55-.5.88-1.2.92-1.93v-7.46a3.7 3.7 0 002.43-1.16c.63-.67.97-1.55.97-2.46V14.4l-.03-.34zM2.95 15.74c.78 0 1.53.3 2.08.85.56.54.87 1.27.87 2.04v12.4a2.84 2.84 0 01-.86 2.05 2.95 2.95 0 01-2.09.85c-.78 0-1.53-.3-2.09-.85A2.87 2.87 0 010 31.03v-12.4a2.84 2.84 0 01.87-2.04 2.95 2.95 0 012.08-.85zM40.06 15.74c.78 0 1.53.3 2.08.85.55.54.86 1.27.86 2.04v12.4a2.84 2.84 0 01-.86 2.05 2.95 2.95 0 01-2.08.85c-.79 0-1.54-.3-2.1-.85a2.87 2.87 0 01-.86-2.05v-12.4a2.84 2.84 0 01.87-2.04 2.95 2.95 0 012.09-.85zM8.17 12.06h26.57a10.4 10.4 0 00-3.26-7.3L34.05.5a.3.3 0 00-.12-.46.32.32 0 00-.42.1L31.09 4.3A16.7 16.7 0 0021.46.9a16.98 16.98 0 00-9.58 3.4L9.5.2a.32.32 0 00-.18-.16.33.33 0 00-.25 0 .31.31 0 00-.11.42l2.5 4.25a10.44 10.44 0 00-3.29 7.36zm17.7-5.21c0-.4.17-.78.45-1.06a1.55 1.55 0 012.17 0 1.49 1.49 0 010 2.12 1.55 1.55 0 01-2.17 0 1.49 1.49 0 01-.45-1.06zm-11.38 0c0-.4.16-.78.45-1.06a1.55 1.55 0 012.17 0 1.49 1.49 0 010 2.12 1.55 1.55 0 01-2.17 0 1.49 1.49 0 01-.45-1.06z"
      fill="#A4C639" />
  </symbol>
  <symbol id="apple-logo" viewBox="0 0 47 56">
    <path
      d="M39.24 29.74c.01 2.41.75 4.77 2.13 6.79A12.67 12.67 0 0047 41.06a29.8 29.8 0 01-4 7.96c-2.4 3.42-4.9 6.82-8.84 6.9-3.94.1-5.1-2.21-9.53-2.21-4.44 0-5.8 2.15-9.46 2.29-3.67.13-6.7-3.72-9.1-7.12-4.95-6.9-8.75-19.63-3.66-28.2 1.2-2.07 2.93-3.8 5.03-5.03a14.49 14.49 0 016.93-1.98c3.73-.07 7.25 2.43 9.53 2.43 2.28 0 6.56-3.01 11.06-2.57 2.08.08 4.12.62 5.95 1.58 1.84.96 3.41 2.32 4.61 3.98-.27.16-6.3 3.57-6.24 10.65h-.04zm-7.26-20.8a12.07 12.07 0 003-8.94c-3.3.3-6.36 1.82-8.55 4.24-1.86 2.1-3.5 5.45-3.05 8.66 3.25.25 6.55-1.6 8.57-3.94"
      fill="#fff" />
  </symbol>
  <symbol id="microsoft-logo" viewBox="0 0 44 41">
    <path d="M20.9 19.52H0V0h20.9v19.52z" fill="#F05423" />
    <path d="M44 19.52H23.1V0H44v19.52z" fill="#84C441" />
    <path d="M20.9 41H0V21.48h20.9V41z" fill="#2DABE2" />
    <path d="M44 41H23.1V21.48H44V41z" fill="#F9BC15" />
  </symbol>
  <symbol id="arrow" viewBox="0 0 22 41">
    <path
      d="M2.0413 20.5035L21.7483 1.4144C21.8281 1.3379 21.8914 1.24683 21.9346 1.14646C21.9778 1.04608 22 0.938398 22 0.829635C22 0.720871 21.9778 0.613187 21.9346 0.512814C21.8914 0.41244 21.8281 0.321369 21.7483 0.24487C21.6686 0.167255 21.5738 0.105671 21.4694 0.0636507C21.365 0.0216304 21.2532 0 21.1401 0C21.0271 0 20.9153 0.0216304 20.8109 0.0636507C20.7065 0.105671 20.6117 0.167255 20.532 0.24487L0.252535 19.9088C0.17249 19.9862 0.108978 20.0781 0.0656429 20.1793C0.0223074 20.2805 0 20.389 0 20.4985C0 20.6081 0.0223074 20.7166 0.0656429 20.8178C0.108978 20.919 0.17249 21.0109 0.252535 21.0883L20.532 40.7621C20.6967 40.9157 20.9167 41.001 21.1453 41C21.3139 40.9985 21.4783 40.9488 21.6181 40.8572C21.7578 40.7656 21.8666 40.6362 21.9309 40.485C21.9952 40.3339 22.0122 40.1677 21.9797 40.0072C21.9473 39.8467 21.8668 39.6991 21.7483 39.5827L2.0413 20.5035Z"
      fill="currentColor" />
  </symbol>
  <symbol id="htmlacademy-logo" viewBox="0 0 27 34">
    <path
      d="M13.64.02L13.5 0 0 1.4v24.61L13.5 34 27 26.01V1.41L13.64 0zm11.6 25L13.5 31.96 1.77 25.02v-10.1l11.68 6.93.02 1.25-8.02-4.75v1.23l8.04 4.8.02 1.3-8.05-4.76v1.22l8.04 4.81 8.12-4.83V16.9l3.62-2.15v10.26zm0-11.57L22 15.33l-1.48.88-7.06-4.19-.01 1.23 6.04 3.57-.06.03-.13.07-.86.5-4.98-2.95-.01 1.22 3.93 2.33-.93.61-.02.01-2.97-1.74-.01 1.23 1.94 1.13-1.98 1.19L1.8 13.58l11.63-6.96 11.8 6.83zm0-1.22L13.43 5.3 1.77 12.22V2.99L13.5 1.76 25.23 3v9.24z"
      fill="currentColor" />
  </symbol>

  <symbol id="icon-crop" viewBox="0 0 44 44">
    <path d="M32 28h4V12a4 4 0 00-4-4H16v4h16v16zm-20 4V0H8v8H0v4h8v20a4 4 0 004 4h20v8h4v-8h8v-4H12z"
      fill="currentColor"/>
  </symbol>
  <symbol id="icon-fill" viewBox="0 0 48 43">
    <path d="M33.12 17.88L15.24 0l-2.83 2.83 4.76 4.76L6.88 17.88a3 3 0 000 4.24l11 11a3 3 0 004.24 0l11-11a3 3 0 000-4.24zM10.41 20L20 10.42 29.59 20H10.41zM38 23s-4 4.33-4 7a4 4 0 108 0c0-2.67-4-7-4-7zM48 40H0v3h48v-3z"
      fill="currentColor"/>
  </symbol>
  <symbol id="icon-contrast" viewBox="0 0 32 32">
    <path d="M16 4a12 12 0 110 24 12 12 0 010-24zm0-4a16 16 0 100 32 16 16 0 000-32zM16 24.29a8.52 8.52 0 000-17"
      fill="currentColor"/>
  </symbol>
</svg>
