<svg xmlns="http://www.w3.org/2000/svg">
  <symbol id="logo-glasses" viewBox="0 0 145 40">
    <path d="M71.005 18.5486C71.0049 18.2125 71.1358 17.8898 71.3697 17.6494C71.6037 17.409 71.922 17.2701 72.2568 17.2623H79.39C84.4469 17.2623 87.7751 19.9645 87.7751 24.3918V24.4516C87.7751 29.2977 83.7415 31.8105 78.9727 31.8105H73.5384V38.611C73.5539 38.7874 73.5328 38.9651 73.4762 39.1329C73.4196 39.3006 73.3289 39.4547 73.2097 39.5854C73.0906 39.716 72.9457 39.8204 72.7842 39.8918C72.6227 39.9631 72.4481 40 72.2717 40C72.0952 40 71.9207 39.9631 71.7592 39.8918C71.5977 39.8204 71.4527 39.716 71.3336 39.5854C71.2145 39.4547 71.1237 39.3006 71.0671 39.1329C71.0106 38.9651 70.9894 38.7874 71.005 38.611V18.5486ZM79.0721 29.5171C82.7778 29.5171 85.2119 27.5228 85.2119 24.5314V24.4716C85.2119 21.2608 82.8175 19.5956 79.2509 19.5956H73.588V29.4772L79.0721 29.5171Z" fill="currentColor"/>
    <path d="M92.5935 18.389C92.5779 18.2126 92.5991 18.0349 92.6556 17.8671C92.7122 17.6994 92.803 17.5452 92.9221 17.4146C93.0412 17.2839 93.1862 17.1796 93.3477 17.1082C93.5092 17.0369 93.6837 17 93.8602 17C94.0366 17 94.2112 17.0369 94.3727 17.1082C94.5342 17.1796 94.6791 17.2839 94.7982 17.4146C94.9174 17.5452 95.0081 17.6994 95.0647 17.8671C95.1213 18.0349 95.1425 18.2126 95.1269 18.389V38.611C95.1425 38.7874 95.1213 38.9651 95.0647 39.1329C95.0081 39.3006 94.9174 39.4548 94.7982 39.5854C94.6791 39.7161 94.5342 39.8204 94.3727 39.8918C94.2112 39.9631 94.0366 40 93.8602 40C93.6837 40 93.5092 39.9631 93.3477 39.8918C93.1862 39.8204 93.0412 39.7161 92.9221 39.5854C92.803 39.4548 92.7122 39.3006 92.6556 39.1329C92.5991 38.9651 92.5779 38.7874 92.5935 38.611V18.389Z" fill="currentColor"/>
    <path d="M101.674 18.419C101.682 18.0891 101.816 17.775 102.05 17.5426C102.283 17.3102 102.597 17.1776 102.926 17.1725H103.273C103.532 17.1778 103.784 17.2482 104.008 17.3771C104.232 17.5061 104.42 17.6894 104.555 17.9104L118.156 35.3104V18.3591C118.156 18.0312 118.286 17.7167 118.517 17.4848C118.748 17.2529 119.061 17.1227 119.388 17.1227C119.715 17.1227 120.028 17.2529 120.259 17.4848C120.49 17.7167 120.62 18.0312 120.62 18.3591V38.6508C120.625 38.8051 120.599 38.9589 120.544 39.1028C120.488 39.2467 120.403 39.3777 120.296 39.4878C120.188 39.5979 120.059 39.6848 119.916 39.7432C119.774 39.8016 119.621 39.8303 119.467 39.8275H119.338C119.074 39.8092 118.818 39.7294 118.591 39.5944C118.363 39.4593 118.17 39.2728 118.027 39.0497L104.118 21.2408V38.6508C104.116 38.9722 103.991 39.2805 103.769 39.5124C103.547 39.7442 103.246 39.882 102.926 39.8973C102.601 39.892 102.291 39.7581 102.064 39.5246C101.837 39.2911 101.711 38.9771 101.714 38.6508V18.419H101.674Z" fill="currentColor"/>
    <path d="M126.938 18.389C126.923 18.2126 126.944 18.0349 127.001 17.8671C127.057 17.6994 127.148 17.5452 127.267 17.4146C127.386 17.2839 127.531 17.1796 127.693 17.1082C127.854 17.0369 128.029 17 128.205 17C128.382 17 128.556 17.0369 128.718 17.1082C128.879 17.1796 129.024 17.2839 129.143 17.4146C129.262 17.5452 129.353 17.6994 129.41 17.8671C129.466 18.0349 129.487 18.2126 129.472 18.389V30.6837L142.228 17.5514C142.49 17.2797 142.845 17.1191 143.222 17.1027C143.547 17.1155 143.855 17.2528 144.082 17.4865C144.309 17.7202 144.439 18.0325 144.444 18.3591C144.437 18.529 144.396 18.6957 144.325 18.8498C144.253 19.0038 144.152 19.1421 144.026 19.2565L136.078 27.1539L144.652 37.6836C144.876 37.9441 145 38.2768 145 38.6209C144.996 38.7933 144.958 38.9633 144.889 39.121C144.819 39.2786 144.719 39.4209 144.594 39.5395C144.47 39.6582 144.323 39.7509 144.162 39.8123C144.002 39.8737 143.831 39.9026 143.659 39.8973C143.459 39.8891 143.264 39.8322 143.091 39.7314C142.918 39.6306 142.772 39.4891 142.665 39.3189L134.3 28.859L129.472 33.7051V38.591C129.472 38.7573 129.439 38.922 129.376 39.0756C129.312 39.2293 129.219 39.3689 129.102 39.4865C128.985 39.6041 128.846 39.6973 128.693 39.761C128.54 39.8246 128.376 39.8574 128.21 39.8574C128.044 39.8574 127.88 39.8246 127.727 39.761C127.574 39.6973 127.435 39.6041 127.318 39.4865C127.201 39.3689 127.108 39.2293 127.044 39.0756C126.981 38.922 126.948 38.7573 126.948 38.591V18.389H126.938Z" fill="currentColor"/>
    <path fill-rule="evenodd" clip-rule="evenodd" d="M53.8917 6.58616L58.9302 27.7312C59.0013 27.9491 59.0184 28.1815 58.98 28.4078C58.9417 28.6341 58.849 28.8472 58.7102 29.0284C58.5715 29.2096 58.3909 29.3532 58.1845 29.4465C57.978 29.5398 57.7522 29.58 57.5268 29.5635H53.5201C52.8298 35.3747 47.9494 39.8784 42.0315 39.8784C36.1136 39.8784 31.2332 35.3747 30.543 29.5635H28.5778C27.8869 35.442 22.9527 40 16.9685 40C10.9742 40 6.0335 35.4266 5.35571 29.5337H1.45014C1.22961 29.5445 1.00974 29.5014 0.808914 29.4082C0.608085 29.315 0.432119 29.1743 0.295711 28.9979C0.159304 28.8214 0.0664152 28.6144 0.0248022 28.3941C-0.0168108 28.1737 -0.00593994 27.9464 0.0565069 27.7312L5.10477 6.58616C5.45562 4.25872 7.63865 0 13.4861 0C13.8738 0 14.2456 0.156518 14.5197 0.435122C14.7939 0.713727 14.9479 1.0916 14.9479 1.4856C14.9479 1.87961 14.7939 2.25748 14.5197 2.53608C14.2456 2.81468 13.8738 2.9712 13.4861 2.9712C8.7789 2.9712 8.04797 6.6654 7.9895 7.07146L3.3408 26.6022H5.37467C6.12089 20.7847 11.0272 16.2918 16.9685 16.2918C22.9066 16.2918 27.8107 20.7798 28.5611 26.5926L30.5587 26.6017C31.3043 20.8518 36.1567 16.4134 42.0315 16.4134C47.9178 16.4134 52.7776 20.8691 53.5086 26.6353V26.5824H55.6459L51.007 7.07146C50.9387 6.6654 50.237 2.9712 45.5104 2.9712C45.1227 2.9712 44.7509 2.81468 44.4767 2.53608C44.2026 2.25748 44.0485 1.87961 44.0485 1.4856C44.0485 1.0916 44.2026 0.713727 44.4767 0.435122C44.7509 0.156518 45.1227 0 45.5104 0C51.3578 0 53.5408 4.25872 53.8917 6.58616ZM25.6722 29.5635C25.7448 29.1018 25.7825 28.6283 25.7825 28.1459C25.7825 27.6164 25.7371 27.0977 25.65 26.5935C24.9252 22.3982 21.3141 19.2097 16.9685 19.2097C12.6203 19.2097 9.00753 22.402 8.28571 26.601C8.19945 27.1028 8.15447 27.619 8.15447 28.1459C8.15447 28.6205 8.19096 29.0864 8.26125 29.541C8.92191 33.8136 12.5687 37.0821 16.9685 37.0821C21.3605 37.0821 25.0023 33.8251 25.6722 29.5635ZM50.6138 29.5635C50.6874 29.102 50.7256 28.6285 50.7256 28.1459C50.7256 23.2777 46.8331 19.3313 42.0315 19.3313C37.2299 19.3313 33.3374 23.2777 33.3374 28.1459C33.3374 28.6285 33.3756 29.102 33.4492 29.5635C34.118 33.7577 37.7058 36.9605 42.0315 36.9605C46.3572 36.9605 49.945 33.7577 50.6138 29.5635Z"/>
  </symbol>
  <symbol id="logo-pretty-glasses" width="147" height="40" viewBox="0 0 147 40">
    <path d="M72.1933 18.4251C72.1932 18.0924 72.3255 17.7728 72.562 17.5348C72.7985 17.2967 73.1204 17.1591 73.4588 17.1514H80.6703C85.7826 17.1514 89.1473 19.8272 89.1473 24.2113V24.2705C89.1473 29.0693 85.0695 31.5575 80.2484 31.5575H74.7544V38.2916C74.7702 38.4663 74.7488 38.6423 74.6916 38.8084C74.6344 38.9745 74.5426 39.1271 74.4222 39.2565C74.3017 39.3859 74.1552 39.4892 73.992 39.5599C73.8287 39.6306 73.6522 39.6671 73.4738 39.6671C73.2954 39.6671 73.119 39.6306 72.9557 39.5599C72.7925 39.4892 72.6459 39.3859 72.5255 39.2565C72.405 39.1271 72.3133 38.9745 72.2561 38.8084C72.1989 38.6423 72.1775 38.4663 72.1933 38.2916V18.4251ZM80.3489 29.2865C84.0952 29.2865 86.556 27.3117 86.556 24.3495V24.2903C86.556 21.1108 84.1354 19.4619 80.5297 19.4619H74.8047V29.247L80.3489 29.2865Z" fill="currentColor"/>
    <path d="M94.0187 18.2671C94.0029 18.0924 94.0243 17.9164 94.0815 17.7502C94.1387 17.5841 94.2305 17.4315 94.3509 17.3021C94.4714 17.1728 94.6179 17.0695 94.7812 16.9988C94.9444 16.9281 95.1209 16.8916 95.2993 16.8916C95.4777 16.8916 95.6541 16.9281 95.8174 16.9988C95.9807 17.0695 96.1272 17.1728 96.2476 17.3021C96.3681 17.4315 96.4598 17.5841 96.517 17.7502C96.5742 17.9164 96.5956 18.0924 96.5799 18.2671V38.2915C96.5956 38.4662 96.5742 38.6422 96.517 38.8084C96.4598 38.9745 96.3681 39.1271 96.2476 39.2565C96.1272 39.3858 95.9807 39.4891 95.8174 39.5598C95.6541 39.6305 95.4777 39.667 95.2993 39.667C95.1209 39.667 94.9444 39.6305 94.7812 39.5598C94.6179 39.4891 94.4714 39.3858 94.3509 39.2565C94.2305 39.1271 94.1387 38.9745 94.0815 38.8084C94.0243 38.6422 94.0029 38.4662 94.0187 38.2915V18.2671Z" fill="currentColor"/>
    <path d="M103.199 18.2963C103.206 17.9697 103.343 17.6587 103.579 17.4285C103.815 17.1984 104.132 17.0671 104.464 17.0621H104.816C105.077 17.0673 105.332 17.137 105.559 17.2647C105.785 17.3923 105.975 17.5739 106.111 17.7927L119.862 35.0229V18.2371C119.862 17.9123 119.993 17.6009 120.226 17.3713C120.46 17.1417 120.777 17.0127 121.107 17.0127C121.437 17.0127 121.754 17.1417 121.988 17.3713C122.221 17.6009 122.352 17.9123 122.352 18.2371V38.3306C122.358 38.4834 122.332 38.6357 122.275 38.7782C122.219 38.9207 122.134 39.0504 122.025 39.1594C121.916 39.2685 121.785 39.3545 121.641 39.4123C121.497 39.4702 121.343 39.4986 121.187 39.4958H121.057C120.79 39.4777 120.531 39.3987 120.301 39.265C120.071 39.1313 119.876 38.9466 119.731 38.7256L105.67 21.0907V38.3306C105.667 38.6489 105.541 38.9542 105.317 39.1838C105.093 39.4134 104.788 39.5498 104.464 39.5649C104.136 39.5597 103.823 39.4271 103.593 39.1959C103.363 38.9647 103.236 38.6537 103.239 38.3306V18.2963H103.199Z" fill="currentColor"/>
    <path d="M128.74 18.2671C128.725 18.0924 128.746 17.9164 128.803 17.7502C128.86 17.5841 128.952 17.4315 129.073 17.3021C129.193 17.1728 129.34 17.0695 129.503 16.9988C129.666 16.9281 129.843 16.8916 130.021 16.8916C130.199 16.8916 130.376 16.9281 130.539 16.9988C130.702 17.0695 130.849 17.1728 130.969 17.3021C131.09 17.4315 131.182 17.5841 131.239 17.7502C131.296 17.9164 131.317 18.0924 131.302 18.2671V30.4417L144.198 17.4377C144.462 17.1686 144.822 17.0095 145.202 16.9933C145.531 17.0059 145.842 17.1419 146.072 17.3734C146.302 17.6048 146.433 17.9141 146.438 18.2375C146.431 18.4056 146.39 18.5708 146.317 18.7233C146.245 18.8758 146.142 19.0127 146.016 19.1261L137.981 26.9463L146.649 37.3733C146.875 37.6312 147 37.9606 147 38.3014C146.996 38.4721 146.958 38.6404 146.888 38.7965C146.817 38.9527 146.716 39.0936 146.59 39.2111C146.464 39.3286 146.315 39.4203 146.153 39.4811C145.991 39.5419 145.818 39.5705 145.644 39.5653C145.441 39.5598 145.243 39.5045 145.068 39.4045C144.893 39.3044 144.745 39.1629 144.64 38.9926L136.193 28.6348L131.302 33.4335V38.2718C131.302 38.4365 131.269 38.5995 131.204 38.7517C131.14 38.9038 131.046 39.0421 130.928 39.1585C130.81 39.2749 130.669 39.3673 130.514 39.4303C130.359 39.4933 130.193 39.5258 130.026 39.5258C129.858 39.5258 129.693 39.4933 129.538 39.4303C129.383 39.3673 129.242 39.2749 129.124 39.1585C129.006 39.0421 128.912 38.9038 128.848 38.7517C128.783 38.5995 128.75 38.4365 128.75 38.2718V18.2671H128.74Z" fill="currentColor"/>
    <path d="M98.94 9.74577C97.9748 9.74578 97.0489 9.36951 96.3655 8.69946C95.682 8.02942 95.2967 7.12028 95.2941 6.17139C95.2941 7.11937 94.911 8.02853 94.2292 8.69886C93.5473 9.36919 92.6225 9.74577 91.6582 9.74577C92.6234 9.74839 93.5482 10.1272 94.2298 10.7991C94.9113 11.471 95.2941 12.3811 95.2941 13.33C95.2967 12.3802 95.6817 11.4701 96.3649 10.7985C97.048 10.1268 97.9739 9.74838 98.94 9.74577Z"/>
    <path d="M43.2871 19.0665C43.5382 19.0665 43.7793 19.0665 44.0203 19.0665C43.802 18.6987 43.4898 18.3932 43.1146 18.1802C42.7394 17.9672 42.3142 17.8541 41.881 17.852C41.4628 17.8517 41.0552 17.7231 40.7149 17.4842C40.3746 17.2452 40.1186 16.9078 39.9827 16.519C39.259 16.7243 38.5562 16.9954 37.8835 17.3287H38.0744C38.6071 17.3287 39.1181 17.5368 39.4948 17.9071C39.8715 18.2775 40.0832 18.7798 40.0832 19.3035C40.0881 19.3989 40.0881 19.4945 40.0832 19.5899C41.1091 19.2223 42.1954 19.0449 43.2871 19.0665Z" fill="currentColor"/>
    <path d="M60.7332 27.6472L55.5406 6.56621C55.179 4.24582 52.9291 0 46.9028 0C46.5033 0 46.1201 0.156044 45.8375 0.433804C45.555 0.711564 45.3962 1.08829 45.3962 1.4811C45.3962 1.87391 45.555 2.25063 45.8375 2.52839C46.1201 2.80615 46.5033 2.9622 46.9028 2.9622C51.7741 2.9622 52.4973 6.6452 52.5676 7.05003L57.3484 26.5018H55.2493C55.0321 24.805 54.4439 23.1744 53.525 21.7222C52.6061 20.2701 51.3783 19.0307 49.926 18.0892C49.4712 18.2774 49.0829 18.5932 48.8096 18.9971C48.5363 19.401 48.3901 19.8751 48.3893 20.3602C48.3948 20.4457 48.3948 20.5314 48.3893 20.6169C49.6107 21.4404 50.6131 22.5401 51.3122 23.8236C52.0113 25.1072 52.3867 26.537 52.4069 27.9928C52.4008 28.4894 52.3538 28.9847 52.2663 29.4739C51.9375 31.5714 50.8559 33.484 49.2173 34.8657C47.5786 36.2474 45.4911 37.007 43.3322 37.007C41.1734 37.007 39.0859 36.2474 37.4472 34.8657C35.8086 33.484 34.727 31.5714 34.3982 29.4739C34.3107 28.9847 34.2636 28.4894 34.2576 27.9928C34.2733 26.6229 34.5993 25.2737 35.2118 24.0432C34.7037 24.0081 34.2282 23.7847 33.8814 23.4181C33.5346 23.0515 33.3424 22.569 33.3436 22.0684C33.3453 21.889 33.277 21.7159 33.1528 21.5846C32.181 23.0752 31.5662 24.7633 31.3549 26.5215H29.4868C29.1663 23.6174 27.7658 20.9319 25.5542 18.9809C23.3427 17.0298 20.4759 15.9507 17.5044 15.9507C14.5329 15.9507 11.6662 17.0298 9.45463 18.9809C7.24307 20.9319 5.84259 23.6174 5.5221 26.5215H3.44302L8.23394 7.05003C8.29421 6.6452 9.0475 2.9622 13.8987 2.9622C14.2983 2.9622 14.6815 2.80615 14.964 2.52839C15.2465 2.25063 15.4053 1.87391 15.4053 1.4811C15.4053 1.08829 15.2465 0.711564 14.964 0.433804C14.6815 0.156044 14.2983 0 13.8987 0C7.87236 0 5.62254 4.24582 5.26096 6.56621L0.0582358 27.6472C-0.00612168 27.8617 -0.0173251 28.0883 0.0255611 28.308C0.0684473 28.5277 0.164178 28.7341 0.304759 28.91C0.44534 29.0859 0.62669 29.2262 0.833664 29.3191C1.04064 29.4121 1.26723 29.455 1.49451 29.4443H5.51206C5.59378 30.055 5.72135 30.659 5.89372 31.2512C5.95717 31.1429 5.99172 31.0206 5.99416 30.8957C5.99416 30.372 6.2058 29.8697 6.58252 29.4993C6.95923 29.129 7.47017 28.9209 8.00293 28.9209C8.16525 28.9248 8.32675 28.9446 8.48504 28.9802C8.44252 28.6526 8.41904 28.323 8.41473 27.9928C8.41742 27.4964 8.46109 27.0011 8.5453 26.5117C8.86708 24.4074 9.94627 22.4864 11.5867 21.0981C13.2271 19.7097 15.3198 18.9461 17.4843 18.9461C19.6489 18.9461 21.7416 19.7097 23.382 21.0981C25.0224 22.4864 26.1016 24.4074 26.4234 26.5117C26.5076 27.0011 26.5513 27.4964 26.554 27.9928C26.5638 29.6507 26.1017 31.2782 25.2199 32.6915C24.3381 34.1047 23.0717 35.2472 21.5639 35.9899C20.0561 36.7326 18.3671 37.0458 16.6877 36.8942C15.0083 36.7425 13.4056 36.132 12.0607 35.1317C11.6982 35.4412 11.235 35.6128 10.755 35.6155C10.5569 35.6181 10.3679 35.6973 10.2288 35.8359C10.0897 35.9745 10.0117 36.1613 10.0117 36.356C10.009 36.6321 9.94739 36.9046 9.83092 37.1558C11.9797 38.9066 14.6835 39.8636 17.4743 39.8613C20.4223 39.8738 23.2728 38.8236 25.4864 36.9095C27.7 34.9953 29.1232 32.35 29.4868 29.4739H31.3147C31.6456 32.3691 33.0499 35.0431 35.2593 36.9848C37.4688 38.9266 40.3285 40 43.2921 40C46.2557 40 49.1154 38.9266 51.3248 36.9848C53.5343 35.0431 54.9385 32.3691 55.2694 29.4739H59.2869C59.5191 29.4904 59.7519 29.4503 59.9647 29.3573C60.1774 29.2642 60.3635 29.121 60.5065 28.9404C60.6495 28.7598 60.7451 28.5473 60.7846 28.3217C60.8241 28.0961 60.8065 27.8645 60.7332 27.6472Z" fill="currentColor"/>
    <path d="M50.9203 15.9168C50.3273 15.9181 49.7398 15.8044 49.1915 15.5822C48.6432 15.36 48.1448 15.0336 47.725 14.6218C47.3052 14.21 46.9721 13.7208 46.7448 13.1823C46.5176 12.6437 46.4006 12.0664 46.4006 11.4834C46.3979 12.6601 45.9206 13.7878 45.0733 14.6189C44.2259 15.45 43.0778 15.9168 41.8809 15.9168C43.0788 15.9194 44.2268 16.3884 45.0739 17.2211C45.9209 18.0538 46.3979 19.1825 46.4006 20.3601C46.4006 19.1817 46.8768 18.0515 47.7244 17.2182C48.572 16.385 49.7216 15.9168 50.9203 15.9168Z"/>
    <path d="M38.0741 19.3828C37.3416 19.3828 36.6391 19.0967 36.1211 18.5875C35.6031 18.0783 35.3121 17.3876 35.3121 16.6675C35.3121 17.3859 35.0225 18.0751 34.5066 18.584C33.9908 19.093 33.2909 19.3802 32.5601 19.3828C33.2899 19.3828 33.9899 19.6679 34.506 20.1752C35.0221 20.6826 35.3121 21.3708 35.3121 22.0883C35.3147 21.3699 35.6069 20.6817 36.1246 20.1746C36.6423 19.6675 37.3433 19.3828 38.0741 19.3828Z"/>
    <path d="M10.785 33.6406C10.056 33.6354 9.35856 33.347 8.84491 32.8384C8.33126 32.3297 8.04302 31.642 8.04303 30.9253C8.04304 31.6437 7.75342 32.3329 7.2376 32.8419C6.72178 33.3508 6.02182 33.638 5.29102 33.6406C6.02182 33.6433 6.72178 33.9305 7.2376 34.4394C7.75342 34.9484 8.04304 35.6375 8.04303 36.356C8.04302 35.6392 8.33126 34.9516 8.84491 34.4429C9.35856 33.9342 10.056 33.6459 10.785 33.6406Z"/>
  </symbol>
  <symbol id="logo-pretty-glasses-footer" width="147" height="40" viewBox="0 0 147 40">
    <path d="M72.1933 18.4251C72.1932 18.0924 72.3255 17.7728 72.562 17.5348C72.7985 17.2967 73.1204 17.1591 73.4588 17.1514H80.6703C85.7826 17.1514 89.1473 19.8272 89.1473 24.2113V24.2705C89.1473 29.0693 85.0695 31.5575 80.2484 31.5575H74.7544V38.2916C74.7702 38.4663 74.7488 38.6423 74.6916 38.8084C74.6344 38.9745 74.5426 39.1271 74.4222 39.2565C74.3017 39.3859 74.1552 39.4892 73.992 39.5599C73.8287 39.6306 73.6522 39.6671 73.4738 39.6671C73.2954 39.6671 73.119 39.6306 72.9557 39.5599C72.7925 39.4892 72.6459 39.3859 72.5255 39.2565C72.405 39.1271 72.3133 38.9745 72.2561 38.8084C72.1989 38.6423 72.1775 38.4663 72.1933 38.2916V18.4251ZM80.3489 29.2865C84.0952 29.2865 86.556 27.3117 86.556 24.3495V24.2903C86.556 21.1108 84.1354 19.4619 80.5297 19.4619H74.8047V29.247L80.3489 29.2865Z" fill="currentColor"/>
    <path d="M94.0187 18.2671C94.0029 18.0924 94.0243 17.9164 94.0815 17.7502C94.1387 17.5841 94.2305 17.4315 94.3509 17.3021C94.4714 17.1728 94.6179 17.0695 94.7812 16.9988C94.9444 16.9281 95.1209 16.8916 95.2993 16.8916C95.4777 16.8916 95.6541 16.9281 95.8174 16.9988C95.9807 17.0695 96.1272 17.1728 96.2476 17.3021C96.3681 17.4315 96.4598 17.5841 96.517 17.7502C96.5742 17.9164 96.5956 18.0924 96.5799 18.2671V38.2915C96.5956 38.4662 96.5742 38.6422 96.517 38.8084C96.4598 38.9745 96.3681 39.1271 96.2476 39.2565C96.1272 39.3858 95.9807 39.4891 95.8174 39.5598C95.6541 39.6305 95.4777 39.667 95.2993 39.667C95.1209 39.667 94.9444 39.6305 94.7812 39.5598C94.6179 39.4891 94.4714 39.3858 94.3509 39.2565C94.2305 39.1271 94.1387 38.9745 94.0815 38.8084C94.0243 38.6422 94.0029 38.4662 94.0187 38.2915V18.2671Z" fill="currentColor"/>
    <path d="M103.199 18.2963C103.206 17.9697 103.343 17.6587 103.579 17.4285C103.815 17.1984 104.132 17.0671 104.464 17.0621H104.816C105.077 17.0673 105.332 17.137 105.559 17.2647C105.785 17.3923 105.975 17.5739 106.111 17.7927L119.862 35.0229V18.2371C119.862 17.9123 119.993 17.6009 120.226 17.3713C120.46 17.1417 120.777 17.0127 121.107 17.0127C121.437 17.0127 121.754 17.1417 121.988 17.3713C122.221 17.6009 122.352 17.9123 122.352 18.2371V38.3306C122.358 38.4834 122.332 38.6357 122.275 38.7782C122.219 38.9207 122.134 39.0504 122.025 39.1594C121.916 39.2685 121.785 39.3545 121.641 39.4123C121.497 39.4702 121.343 39.4986 121.187 39.4958H121.057C120.79 39.4777 120.531 39.3987 120.301 39.265C120.071 39.1313 119.876 38.9466 119.731 38.7256L105.67 21.0907V38.3306C105.667 38.6489 105.541 38.9542 105.317 39.1838C105.093 39.4134 104.788 39.5498 104.464 39.5649C104.136 39.5597 103.823 39.4271 103.593 39.1959C103.363 38.9647 103.236 38.6537 103.239 38.3306V18.2963H103.199Z" fill="currentColor"/>
    <path d="M128.74 18.2671C128.725 18.0924 128.746 17.9164 128.803 17.7502C128.86 17.5841 128.952 17.4315 129.073 17.3021C129.193 17.1728 129.34 17.0695 129.503 16.9988C129.666 16.9281 129.843 16.8916 130.021 16.8916C130.199 16.8916 130.376 16.9281 130.539 16.9988C130.702 17.0695 130.849 17.1728 130.969 17.3021C131.09 17.4315 131.182 17.5841 131.239 17.7502C131.296 17.9164 131.317 18.0924 131.302 18.2671V30.4417L144.198 17.4377C144.462 17.1686 144.822 17.0095 145.202 16.9933C145.531 17.0059 145.842 17.1419 146.072 17.3734C146.302 17.6048 146.433 17.9141 146.438 18.2375C146.431 18.4056 146.39 18.5708 146.317 18.7233C146.245 18.8758 146.142 19.0127 146.016 19.1261L137.981 26.9463L146.649 37.3733C146.875 37.6312 147 37.9606 147 38.3014C146.996 38.4721 146.958 38.6404 146.888 38.7965C146.817 38.9527 146.716 39.0936 146.59 39.2111C146.464 39.3286 146.315 39.4203 146.153 39.4811C145.991 39.5419 145.818 39.5705 145.644 39.5653C145.441 39.5598 145.243 39.5045 145.068 39.4045C144.893 39.3044 144.745 39.1629 144.64 38.9926L136.193 28.6348L131.302 33.4335V38.2718C131.302 38.4365 131.269 38.5995 131.204 38.7517C131.14 38.9038 131.046 39.0421 130.928 39.1585C130.81 39.2749 130.669 39.3673 130.514 39.4303C130.359 39.4933 130.193 39.5258 130.026 39.5258C129.858 39.5258 129.693 39.4933 129.538 39.4303C129.383 39.3673 129.242 39.2749 129.124 39.1585C129.006 39.0421 128.912 38.9038 128.848 38.7517C128.783 38.5995 128.75 38.4365 128.75 38.2718V18.2671H128.74Z" fill="currentColor"/>
    <path d="M98.94 9.74577C97.9748 9.74578 97.0489 9.36951 96.3655 8.69946C95.682 8.02942 95.2967 7.12028 95.2941 6.17139C95.2941 7.11937 94.911 8.02853 94.2292 8.69886C93.5473 9.36919 92.6225 9.74577 91.6582 9.74577C92.6234 9.74839 93.5482 10.1272 94.2298 10.7991C94.9113 11.471 95.2941 12.3811 95.2941 13.33C95.2967 12.3802 95.6817 11.4701 96.3649 10.7985C97.048 10.1268 97.9739 9.74838 98.94 9.74577Z"/>
    <path d="M43.2871 19.0665C43.5382 19.0665 43.7793 19.0665 44.0203 19.0665C43.802 18.6987 43.4898 18.3932 43.1146 18.1802C42.7394 17.9672 42.3142 17.8541 41.881 17.852C41.4628 17.8517 41.0552 17.7231 40.7149 17.4842C40.3746 17.2452 40.1186 16.9078 39.9827 16.519C39.259 16.7243 38.5562 16.9954 37.8835 17.3287H38.0744C38.6071 17.3287 39.1181 17.5368 39.4948 17.9071C39.8715 18.2775 40.0832 18.7798 40.0832 19.3035C40.0881 19.3989 40.0881 19.4945 40.0832 19.5899C41.1091 19.2223 42.1954 19.0449 43.2871 19.0665Z"/>
    <path d="M60.7332 27.6472L55.5406 6.56621C55.179 4.24582 52.9291 0 46.9028 0C46.5033 0 46.1201 0.156044 45.8375 0.433804C45.555 0.711564 45.3962 1.08829 45.3962 1.4811C45.3962 1.87391 45.555 2.25063 45.8375 2.52839C46.1201 2.80615 46.5033 2.9622 46.9028 2.9622C51.7741 2.9622 52.4973 6.6452 52.5676 7.05003L57.3484 26.5018H55.2493C55.0321 24.805 54.4439 23.1744 53.525 21.7222C52.6061 20.2701 51.3783 19.0307 49.926 18.0892C49.4712 18.2774 49.0829 18.5932 48.8096 18.9971C48.5363 19.401 48.3901 19.8751 48.3893 20.3602C48.3948 20.4457 48.3948 20.5314 48.3893 20.6169C49.6107 21.4404 50.6131 22.5401 51.3122 23.8236C52.0113 25.1072 52.3867 26.537 52.4069 27.9928C52.4008 28.4894 52.3538 28.9847 52.2663 29.4739C51.9375 31.5714 50.8559 33.484 49.2173 34.8657C47.5786 36.2474 45.4911 37.007 43.3322 37.007C41.1734 37.007 39.0859 36.2474 37.4472 34.8657C35.8086 33.484 34.727 31.5714 34.3982 29.4739C34.3107 28.9847 34.2636 28.4894 34.2576 27.9928C34.2733 26.6229 34.5993 25.2737 35.2118 24.0432C34.7037 24.0081 34.2282 23.7847 33.8814 23.4181C33.5346 23.0515 33.3424 22.569 33.3436 22.0684C33.3453 21.889 33.277 21.7159 33.1528 21.5846C32.181 23.0752 31.5662 24.7633 31.3549 26.5215H29.4868C29.1663 23.6174 27.7658 20.9319 25.5542 18.9809C23.3427 17.0298 20.4759 15.9507 17.5044 15.9507C14.5329 15.9507 11.6662 17.0298 9.45463 18.9809C7.24307 20.9319 5.84259 23.6174 5.5221 26.5215H3.44302L8.23394 7.05003C8.29421 6.6452 9.0475 2.9622 13.8987 2.9622C14.2983 2.9622 14.6815 2.80615 14.964 2.52839C15.2465 2.25063 15.4053 1.87391 15.4053 1.4811C15.4053 1.08829 15.2465 0.711564 14.964 0.433804C14.6815 0.156044 14.2983 0 13.8987 0C7.87236 0 5.62254 4.24582 5.26096 6.56621L0.0582358 27.6472C-0.00612168 27.8617 -0.0173251 28.0883 0.0255611 28.308C0.0684473 28.5277 0.164178 28.7341 0.304759 28.91C0.44534 29.0859 0.62669 29.2262 0.833664 29.3191C1.04064 29.4121 1.26723 29.455 1.49451 29.4443H5.51206C5.59378 30.055 5.72135 30.659 5.89372 31.2512C5.95717 31.1429 5.99172 31.0206 5.99416 30.8957C5.99416 30.372 6.2058 29.8697 6.58252 29.4993C6.95923 29.129 7.47017 28.9209 8.00293 28.9209C8.16525 28.9248 8.32675 28.9446 8.48504 28.9802C8.44252 28.6526 8.41904 28.323 8.41473 27.9928C8.41742 27.4964 8.46109 27.0011 8.5453 26.5117C8.86708 24.4074 9.94627 22.4864 11.5867 21.0981C13.2271 19.7097 15.3198 18.9461 17.4843 18.9461C19.6489 18.9461 21.7416 19.7097 23.382 21.0981C25.0224 22.4864 26.1016 24.4074 26.4234 26.5117C26.5076 27.0011 26.5513 27.4964 26.554 27.9928C26.5638 29.6507 26.1017 31.2782 25.2199 32.6915C24.3381 34.1047 23.0717 35.2472 21.5639 35.9899C20.0561 36.7326 18.3671 37.0458 16.6877 36.8942C15.0083 36.7425 13.4056 36.132 12.0607 35.1317C11.6982 35.4412 11.235 35.6128 10.755 35.6155C10.5569 35.6181 10.3679 35.6973 10.2288 35.8359C10.0897 35.9745 10.0117 36.1613 10.0117 36.356C10.009 36.6321 9.94739 36.9046 9.83092 37.1558C11.9797 38.9066 14.6835 39.8636 17.4743 39.8613C20.4223 39.8738 23.2728 38.8236 25.4864 36.9095C27.7 34.9953 29.1232 32.35 29.4868 29.4739H31.3147C31.6456 32.3691 33.0499 35.0431 35.2593 36.9848C37.4688 38.9266 40.3285 40 43.2921 40C46.2557 40 49.1154 38.9266 51.3248 36.9848C53.5343 35.0431 54.9385 32.3691 55.2694 29.4739H59.2869C59.5191 29.4904 59.7519 29.4503 59.9647 29.3573C60.1774 29.2642 60.3635 29.121 60.5065 28.9404C60.6495 28.7598 60.7451 28.5473 60.7846 28.3217C60.8241 28.0961 60.8065 27.8645 60.7332 27.6472Z"/>
    <path d="M50.9203 15.9168C50.3273 15.9181 49.7398 15.8044 49.1915 15.5822C48.6432 15.36 48.1448 15.0336 47.725 14.6218C47.3052 14.21 46.9721 13.7208 46.7448 13.1823C46.5176 12.6437 46.4006 12.0664 46.4006 11.4834C46.3979 12.6601 45.9206 13.7878 45.0733 14.6189C44.2259 15.45 43.0778 15.9168 41.8809 15.9168C43.0788 15.9194 44.2268 16.3884 45.0739 17.2211C45.9209 18.0538 46.3979 19.1825 46.4006 20.3601C46.4006 19.1817 46.8768 18.0515 47.7244 17.2182C48.572 16.385 49.7216 15.9168 50.9203 15.9168Z" fill="currentColor"/>
    <path d="M38.0741 19.3828C37.3416 19.3828 36.6391 19.0967 36.1211 18.5875C35.6031 18.0783 35.3121 17.3876 35.3121 16.6675C35.3121 17.3859 35.0225 18.0751 34.5066 18.584C33.9908 19.093 33.2909 19.3802 32.5601 19.3828C33.2899 19.3828 33.9899 19.6679 34.506 20.1752C35.0221 20.6826 35.3121 21.3708 35.3121 22.0883C35.3147 21.3699 35.6069 20.6817 36.1246 20.1746C36.6423 19.6675 37.3433 19.3828 38.0741 19.3828Z" fill="currentColor"/>
    <path d="M10.785 33.6406C10.056 33.6354 9.35856 33.347 8.84491 32.8384C8.33126 32.3297 8.04302 31.642 8.04303 30.9253C8.04304 31.6437 7.75342 32.3329 7.2376 32.8419C6.72178 33.3508 6.02182 33.638 5.29102 33.6406C6.02182 33.6433 6.72178 33.9305 7.2376 34.4394C7.75342 34.9484 8.04304 35.6375 8.04303 36.356C8.04302 35.6392 8.33126 34.9516 8.84491 34.4429C9.35856 33.9342 10.056 33.6459 10.785 33.6406Z" fill="currentColor"/>
  </symbol>
</svg>
