<svg width="50" height="24" fill="none" xmlns="http://www.w3.org/2000/svg"><path d="M1.14 0C.99 0 .84.02.7.07S.43.2.33.3A.88.88 0 000 1v2c0 .27.12.52.33.7.22.2.5.3.8.3h47.73c.15 0 .3-.02.44-.07s.27-.12.37-.22A.88.88 0 0050 3V1a.94.94 0 00-.33-.7c-.22-.2-.5-.3-.8-.3H1.13zm0 10c-.15 0-.3.02-.44.07s-.27.12-.37.22A.88.88 0 000 11v2c0 .27.12.52.33.7.22.2.5.3.8.3h47.73c.15 0 .3-.02.44-.07s.27-.12.37-.22A.88.88 0 0050 13v-2a.94.94 0 00-.33-.7c-.22-.2-.5-.3-.8-.3H1.13zm0 10c-.15 0-.3.02-.44.07s-.27.12-.37.22A.88.88 0 000 21v2c0 .27.12.52.33.7.22.2.5.3.8.3h47.73c.15 0 .3-.02.44-.07s.27-.12.37-.22A.88.88 0 0050 23v-2a.94.94 0 00-.33-.7c-.22-.2-.5-.3-.8-.3H1.13z" fill="#fff"/></svg>