<svg width="299" height="345" viewBox="0 0 299 345" fill="none" xmlns="http://www.w3.org/2000/svg">
<mask id="mask0" mask-type="alpha" maskUnits="userSpaceOnUse" x="0" y="0" width="299" height="345">
<rect width="299" height="345" fill="#C4C4C4"/>
</mask>
<g mask="url(#mask0)">
<path d="M265.586 102.035L270.936 96.676C278.656 88.9579 280.066 77.7407 274.066 71.7522C268.066 65.7637 256.846 67.1533 249.136 74.8714L243.746 80.2601C222.304 62.8474 196.42 51.7734 169.016 48.288V38.7004H176.676C187.586 38.7004 196.516 29.9925 196.516 19.3552C196.516 8.71783 187.586 0 176.676 0H123.356C112.446 0 103.516 8.70784 103.516 19.3552C103.516 30.0025 112.446 38.7004 123.356 38.7004H131.016V48.288C98.2841 52.4916 67.8739 67.4402 44.5572 90.7884C21.2404 114.137 6.33669 144.563 2.18437 177.294C-1.96795 210.025 4.86613 243.208 21.6143 271.636C38.3625 300.065 64.0771 322.13 94.7233 334.37C125.369 346.61 159.213 348.332 190.944 339.266C222.675 330.199 250.497 310.858 270.046 284.277C289.594 257.695 299.763 225.377 298.956 192.394C298.149 159.411 286.412 127.629 265.586 102.035ZM150.016 306.184C128.226 306.184 106.926 299.724 88.8082 287.621C70.6906 275.518 56.5699 258.315 48.2316 238.189C39.8934 218.062 37.7123 195.916 41.964 174.55C46.2158 153.184 56.7094 133.558 72.118 118.155C87.5265 102.752 107.158 92.2625 128.529 88.0138C149.901 83.765 172.053 85.9477 192.184 94.2856C212.314 102.624 229.52 116.742 241.624 134.857C253.729 152.971 260.188 174.267 260.186 196.051C260.184 225.261 248.575 253.274 227.915 273.927C207.254 294.581 179.234 306.184 150.016 306.184Z" fill="#DEDEDE"/>
<circle cx="150" cy="196" r="117" stroke="#D22856" stroke-width="18"/>
<path d="M146.133 239H86.25V226.402L107.754 204.664C114.121 198.141 118.281 193.629 120.234 191.129C122.188 188.59 123.594 186.246 124.453 184.098C125.312 181.949 125.742 179.723 125.742 177.418C125.742 173.98 124.785 171.422 122.871 169.742C120.996 168.062 118.477 167.223 115.312 167.223C111.992 167.223 108.77 167.984 105.645 169.508C102.52 171.031 99.2578 173.199 95.8594 176.012L86.0156 164.352C90.2344 160.758 93.7305 158.219 96.5039 156.734C99.2773 155.25 102.305 154.117 105.586 153.336C108.867 152.516 112.539 152.105 116.602 152.105C121.953 152.105 126.68 153.082 130.781 155.035C134.883 156.988 138.066 159.723 140.332 163.238C142.598 166.754 143.73 170.777 143.73 175.309C143.73 179.254 143.027 182.965 141.621 186.441C140.254 189.879 138.105 193.414 135.176 197.047C132.285 200.68 127.168 205.855 119.824 212.574L108.809 222.945V223.766H146.133V239ZM216.621 221.246H206.309V239H188.613V221.246H152.051V208.648L189.609 153.336H206.309V207.184H216.621V221.246ZM188.613 207.184V192.652C188.613 190.23 188.711 186.715 188.906 182.105C189.102 177.496 189.258 174.82 189.375 174.078H188.906C187.461 177.281 185.723 180.406 183.691 183.453L167.988 207.184H188.613Z" fill="#D22856"/>
</g>
</svg>
